<svg width="21" height="20" viewBox="0 0 21 20" fill="none" xmlns="http://www.w3.org/2000/svg">
<path d="M15.3126 0.677002C14.3273 0.692328 13.3635 0.967374 12.5185 1.47436C11.6735 1.98135 10.9773 2.70234 10.5001 3.5645C10.0229 2.70234 9.32665 1.98135 8.48167 1.47436C7.63668 0.967374 6.67288 0.692328 5.68759 0.677002C4.11691 0.745244 2.63708 1.43235 1.5714 2.58821C0.505713 3.74406 -0.0591961 5.27471 8.5575e-05 6.84575C8.5575e-05 10.8244 4.18784 15.1696 7.70009 18.1158C8.48428 18.7747 9.47577 19.136 10.5001 19.136C11.5244 19.136 12.5159 18.7747 13.3001 18.1158C16.8123 15.1696 21.0001 10.8244 21.0001 6.84575C21.0594 5.27471 20.4945 3.74406 19.4288 2.58821C18.3631 1.43235 16.8833 0.745244 15.3126 0.677002ZM12.1757 16.777C11.7067 17.172 11.1132 17.3885 10.5001 17.3885C9.88693 17.3885 9.29348 17.172 8.82446 16.777C4.32871 13.0049 1.75009 9.38588 1.75009 6.84575C1.69027 5.73863 2.07066 4.65277 2.80828 3.82499C3.5459 2.99721 4.58092 2.49468 5.68759 2.427C6.79426 2.49468 7.82927 2.99721 8.56689 3.82499C9.30452 4.65277 9.6849 5.73863 9.62509 6.84575C9.62509 7.07782 9.71727 7.30038 9.88137 7.46447C10.0455 7.62856 10.268 7.72075 10.5001 7.72075C10.7322 7.72075 10.9547 7.62856 11.1188 7.46447C11.2829 7.30038 11.3751 7.07782 11.3751 6.84575C11.3153 5.73863 11.6957 4.65277 12.4333 3.82499C13.1709 2.99721 14.2059 2.49468 15.3126 2.427C16.4193 2.49468 17.4543 2.99721 18.1919 3.82499C18.9295 4.65277 19.3099 5.73863 19.2501 6.84575C19.2501 9.38588 16.6715 13.0049 12.1757 16.7735V16.777Z" fill="#EEEBDD"/>
</svg>
